<?xml version="1.0" encoding="UTF-8" standalone="no"?>
<svg
   xmlns:dc="http://purl.org/dc/elements/1.1/"
   xmlns:cc="http://creativecommons.org/ns#"
   xmlns:rdf="http://www.w3.org/1999/02/22-rdf-syntax-ns#"
   xmlns:svg="http://www.w3.org/2000/svg"
   xmlns="http://www.w3.org/2000/svg"
   xmlns:sodipodi="http://sodipodi.sourceforge.net/DTD/sodipodi-0.dtd"
   xmlns:inkscape="http://www.inkscape.org/namespaces/inkscape"
   inkscape:version="0.92.5 (2060ec1f9f, 2020-04-08)"
   sodipodi:docname="rappi-logo.svg"
   id="svg11"
   version="1.2"
   viewBox="0 0 900 900"
   height="900pt"
   width="900pt">
  <metadata
     id="metadata17">
    <rdf:RDF>
      <cc:Work
         rdf:about="">
        <dc:format>image/svg+xml</dc:format>
        <dc:type
           rdf:resource="http://purl.org/dc/dcmitype/StillImage" />
        <dc:title></dc:title>
      </cc:Work>
    </rdf:RDF>
  </metadata>
  <defs
     id="defs15" />
  <sodipodi:namedview
     inkscape:current-layer="surface846"
     inkscape:window-maximized="1"
     inkscape:window-y="-8"
     inkscape:window-x="-8"
     inkscape:cy="600"
     inkscape:cx="600"
     inkscape:zoom="0.69916667"
     showgrid="false"
     id="namedview13"
     inkscape:window-height="1017"
     inkscape:window-width="1920"
     inkscape:pageshadow="2"
     inkscape:pageopacity="0"
     guidetolerance="10"
     gridtolerance="10"
     objecttolerance="10"
     borderopacity="1"
     bordercolor="#666666"
     pagecolor="#ffffff" />
  <g
     id="surface846">
    <path
       id="path2"
       d="M 121.417969 326.121094 C 119.625 332.371094 118.003906 338.445312 116.578125 344.234375 C 114.785156 351.527344 113.128906 358.152344 111.636719 364.097656 C 110.164062 369.921875 109.128906 374.605469 108.546875 378.027344 C 107.359375 384.097656 103.386719 387.925781 97.046875 389.175781 C 91.582031 390.253906 85.714844 389.804688 79.664062 387.839844 C 73.707031 385.894531 68.28125 382.515625 63.539062 377.796875 C 58.566406 372.847656 56.039062 366.613281 56.039062 359.28125 C 56.039062 353.3125 57.535156 343.878906 60.609375 330.4375 C 63.601562 317.332031 67.925781 301.785156 73.46875 284.226562 C 78.964844 266.800781 85.632812 247.605469 93.277344 227.175781 C 99.851562 209.617188 107.214844 191.949219 115.214844 174.523438 C 117.832031 168.816406 123.242188 164.890625 129.484375 164.164062 C 143.609375 162.523438 155.863281 162.925781 166.242188 165.378906 C 172.492188 166.851562 175.855469 173.652344 173.234375 179.515625 C 166.539062 194.480469 160.359375 209.402344 154.847656 223.933594 C 150.382812 235.699219 146.097656 247.339844 142.066406 258.664062 C 141.667969 259.777344 142.804688 260.816406 143.878906 260.324219 C 149.261719 257.84375 154.582031 254.921875 159.777344 251.585938 C 168.296875 246.113281 176.054688 239.578125 182.839844 232.160156 C 189.601562 224.757812 195.144531 216.402344 199.3125 207.320312 C 203.4375 198.335938 205.53125 188.5625 205.53125 178.269531 C 205.53125 165.03125 201.863281 155.257812 194.640625 149.222656 C 187.328125 143.113281 177.023438 140.019531 164.015625 140.019531 C 150.164062 140.019531 137.5 143.304688 126.367188 149.789062 C 114.960938 156.429688 105.089844 164.605469 97.027344 174.097656 C 88.914062 183.632812 82.523438 193.832031 78.035156 204.40625 C 73.585938 214.890625 71.328125 224.082031 71.328125 231.722656 C 71.328125 237.203125 68.4375 241.160156 63.183594 242.867188 C 58.582031 244.363281 53.511719 244.148438 48.300781 242.199219 C 43.289062 240.332031 38.648438 236.652344 34.5 231.261719 C 30.324219 225.84375 28.210938 218.503906 28.210938 209.453125 C 28.210938 201.554688 31.203125 192.242188 37.355469 180.992188 C 43.359375 170.03125 52.222656 159.359375 63.707031 149.273438 C 75.175781 139.203125 89.652344 130.464844 106.742188 123.308594 C 123.9375 116.105469 143.816406 112.457031 165.8125 112.457031 C 178.34375 112.457031 190.90625 113.925781 203.148438 116.820312 C 215.492188 119.746094 226.679688 124.195312 236.398438 130.042969 C 246.234375 135.960938 254.3125 143.394531 260.40625 152.136719 C 266.609375 161.027344 269.753906 171.457031 269.753906 183.132812 C 269.753906 195.710938 266.992188 207.503906 261.546875 218.183594 C 256.148438 228.761719 248.71875 238.425781 239.472656 246.898438 C 230.3125 255.304688 219.453125 262.726562 207.199219 268.949219 C 197.089844 274.074219 186.339844 278.445312 175.183594 281.96875 C 174.476562 282.191406 174.21875 282.558594 174.25 283.296875 C 174.492188 288.863281 174.890625 294.347656 175.441406 299.644531 C 176.074219 305.71875 176.910156 311.648438 177.929688 317.265625 C 178.933594 322.785156 180.140625 328.167969 181.511719 333.257812 C 182.578125 337.195312 183.765625 341.035156 185.042969 344.667969 C 185.855469 346.988281 186.710938 349.253906 187.582031 351.390625 C 189.328125 355.6875 191.25 359.796875 193.300781 363.609375 C 195.304688 367.347656 197.484375 370.898438 199.769531 374.164062 C 201.992188 377.339844 204.382812 380.335938 206.875 383.0625 C 209.300781 385.710938 211.863281 388.15625 214.503906 390.332031 C 217.078125 392.453125 219.789062 394.367188 222.5625 396.027344 C 225.261719 397.636719 228.09375 399.039062 230.976562 400.195312 C 233.820312 401.335938 236.765625 402.25 239.726562 402.914062 C 242.6875 403.578125 245.753906 404.015625 248.839844 404.214844 C 251.925781 404.40625 255.132812 404.363281 258.339844 404.078125 C 261.59375 403.792969 264.921875 403.25 268.238281 402.472656 C 271.621094 401.675781 275.078125 400.617188 278.511719 399.316406 C 282.027344 397.988281 285.585938 396.382812 289.09375 394.550781 C 290.4375 393.847656 291.789062 393.105469 293.140625 392.328125 C 297.519531 389.800781 303.101562 391.003906 306.046875 395.113281 C 308.992188 399.226562 308.335938 404.902344 304.53125 408.230469 C 302.664062 409.867188 300.789062 411.457031 298.925781 412.992188 C 294.425781 416.683594 289.90625 420.109375 285.5 423.171875 C 281.296875 426.085938 277.039062 428.78125 272.835938 431.183594 C 270.726562 432.390625 268.515625 433.585938 266.273438 434.722656 C 261.953125 436.914062 257.578125 438.847656 253.273438 440.472656 C 248.972656 442.085938 244.660156 443.417969 240.453125 444.433594 C 236.25 445.453125 232.019531 446.1875 227.882812 446.613281 C 224.9375 446.914062 221.984375 447.066406 219.105469 447.066406 C 217.941406 447.066406 216.78125 447.042969 215.613281 446.992188 C 211.621094 446.820312 207.640625 446.347656 203.789062 445.585938 C 201.875 445.210938 199.957031 444.753906 198.078125 444.226562 C 196.261719 443.722656 194.398438 443.125 192.53125 442.445312 C 188.941406 441.136719 185.390625 439.523438 181.992188 437.65625 C 178.648438 435.824219 175.371094 433.703125 172.257812 431.355469 C 169.742188 429.457031 167.273438 427.371094 164.921875 425.15625 C 162.097656 422.488281 159.347656 419.542969 156.746094 416.390625 C 154.183594 413.289062 151.722656 409.933594 149.429688 406.414062 C 147.140625 402.898438 144.972656 399.15625 142.980469 395.285156 C 140.984375 391.421875 139.101562 387.316406 137.382812 383.078125 C 135.6875 378.890625 134.097656 374.433594 132.660156 369.835938 C 131.25 365.316406 129.953125 360.527344 128.8125 355.601562 C 127.675781 350.683594 126.6875 345.578125 125.867188 340.425781 C 125.136719 335.875 124.519531 331.148438 124.03125 326.351562 C 123.878906 324.890625 121.824219 324.707031 121.417969 326.121094 "
       style="stroke:none;fill-rule:nonzero;fill:#f9f9f9;fill-opacity:1" />
    <path
       id="path4"
       d="M 872.648438 142.132812 C 872.648438 162.785156 855.902344 179.527344 835.253906 179.527344 C 814.601562 179.527344 797.855469 162.785156 797.855469 142.132812 C 797.855469 121.480469 814.601562 104.734375 835.253906 104.734375 C 855.902344 104.734375 872.648438 121.480469 872.648438 142.132812 "
       style="stroke:none;fill-rule:nonzero;fill:#f9f9f9;fill-opacity:1" />
    <path
       id="path6"
       d="M 695.4375 244.675781 C 694.265625 251.25 692.40625 258.828125 689.914062 267.203125 C 687.40625 275.558594 684.199219 284.371094 680.414062 293.3125 C 676.292969 302.332031 672.03125 310.761719 667.746094 318.367188 C 663.507812 325.886719 659.292969 332.355469 655.230469 337.59375 C 651.265625 342.699219 647.597656 346.472656 644.316406 348.816406 C 641.84375 350.585938 640.476562 350.773438 640 350.773438 C 639.785156 350.773438 639.605469 350.738281 639.417969 350.652344 C 639.007812 350.472656 637.625 349.519531 637.027344 345.027344 C 636.464844 340.917969 636.765625 335.515625 637.910156 328.972656 C 639.078125 322.222656 640.933594 314.582031 643.433594 306.253906 C 645.914062 297.941406 649.117188 289.132812 652.960938 280.066406 C 656.769531 271.078125 660.933594 262.691406 665.347656 255.132812 C 669.75 247.582031 674.035156 241.179688 678.085938 236.101562 C 682.023438 231.144531 685.703125 227.425781 689.023438 225.054688 C 691.503906 223.28125 692.867188 223.09375 693.339844 223.09375 C 693.558594 223.09375 693.746094 223.128906 693.910156 223.207031 C 694.320312 223.390625 695.699219 224.34375 696.3125 228.835938 C 696.867188 232.953125 696.574219 238.28125 695.4375 244.675781 M 527.996094 244.679688 C 526.824219 251.253906 524.964844 258.832031 522.46875 267.203125 C 519.953125 275.597656 516.742188 284.410156 512.972656 293.3125 C 508.84375 302.347656 504.582031 310.777344 500.308594 318.367188 C 496.0625 325.890625 491.847656 332.359375 487.785156 337.59375 C 483.828125 342.695312 480.160156 346.46875 476.871094 348.816406 C 474.402344 350.585938 473.035156 350.773438 472.566406 350.773438 C 472.34375 350.773438 472.164062 350.738281 471.972656 350.652344 C 471.566406 350.472656 470.1875 349.523438 469.582031 345.027344 C 469.027344 340.933594 469.324219 335.53125 470.464844 328.972656 C 471.632812 322.246094 473.492188 314.605469 475.992188 306.253906 C 478.472656 297.9375 481.679688 289.128906 485.523438 280.066406 C 489.339844 271.058594 493.503906 262.667969 497.898438 255.132812 C 502.316406 247.574219 506.601562 241.167969 510.640625 236.105469 C 514.597656 231.132812 518.277344 227.414062 521.582031 225.050781 C 524.058594 223.28125 525.425781 223.09375 525.898438 223.09375 C 526.121094 223.09375 526.304688 223.128906 526.46875 223.207031 C 526.878906 223.390625 528.265625 224.34375 528.871094 228.835938 C 529.421875 232.941406 529.128906 238.273438 527.996094 244.679688 M 346.828125 244.277344 C 346.105469 250.945312 344.695312 258.574219 342.636719 266.945312 C 340.578125 275.289062 337.75 284.078125 334.238281 293.074219 C 330.734375 302.023438 327.003906 310.441406 323.144531 318.097656 C 319.359375 325.570312 315.53125 331.949219 311.765625 337.050781 C 308.09375 342.015625 304.648438 345.714844 301.511719 348.046875 C 299.191406 349.78125 297.910156 349.96875 297.464844 349.96875 C 297.261719 349.96875 297.089844 349.929688 296.902344 349.84375 C 296.476562 349.65625 295.03125 348.679688 294.273438 344.117188 C 293.566406 339.945312 293.5 334.558594 294.074219 328.105469 C 294.65625 321.542969 295.992188 314.003906 298.035156 305.703125 C 300.082031 297.390625 302.910156 288.601562 306.4375 279.578125 C 309.988281 270.511719 313.722656 262.089844 317.542969 254.546875 C 321.308594 247.078125 325.140625 240.621094 328.933594 235.363281 C 332.585938 230.289062 336.03125 226.53125 339.160156 224.195312 C 341.484375 222.46875 342.765625 222.28125 343.214844 222.28125 C 343.421875 222.28125 343.59375 222.316406 343.757812 222.390625 C 344.199219 222.59375 345.71875 223.605469 346.648438 228.230469 C 347.476562 232.332031 347.539062 237.734375 346.828125 244.277344 M 864.300781 292.972656 C 862.480469 290.144531 858.96875 288.316406 855.359375 288.316406 C 851.929688 288.316406 848.851562 289.921875 846.917969 292.726562 C 844.699219 295.933594 841.964844 299.746094 838.785156 304.050781 C 835.296875 308.773438 831.53125 313.300781 827.59375 317.507812 C 823.679688 321.695312 819.871094 325.332031 816.257812 328.324219 C 812.527344 331.421875 810.113281 332.070312 808.746094 332.070312 C 807.789062 332.070312 806.011719 332.070312 805.605469 327.363281 C 805.1875 322.4375 805.917969 316.027344 807.777344 308.3125 C 809.679688 300.390625 812.433594 291.59375 815.964844 282.167969 C 819.5625 272.574219 823.179688 263.414062 826.699219 254.9375 C 830.359375 246.128906 833.507812 238.804688 836.3125 232.546875 C 839.109375 226.320312 840.859375 222.265625 841.527344 220.496094 C 843.765625 215.363281 842.949219 210.304688 839.164062 205.863281 C 835.691406 201.789062 831.039062 198.9375 825.351562 197.378906 C 819.792969 195.855469 813.734375 195.769531 807.417969 197.117188 C 800.65625 198.5625 795.292969 202.472656 791.484375 208.734375 C 788.125 214.230469 783.757812 222.863281 778.5 234.394531 C 773.222656 245.953125 768.125 258.785156 763.34375 272.535156 C 760.445312 280.875 757.769531 289.355469 755.347656 297.890625 C 751.320312 312.085938 743.035156 324.703125 731.609375 334.042969 C 727.515625 337.386719 723.210938 340.535156 718.738281 343.460938 C 716.757812 344.761719 714.761719 345.960938 712.765625 347.0625 C 712.132812 347.410156 711.472656 346.644531 711.910156 346.074219 C 715.363281 341.527344 718.757812 336.613281 722.070312 331.363281 C 728.898438 320.554688 735.117188 307.605469 740.558594 292.886719 C 746.3125 277.296875 749.921875 263.082031 751.289062 250.625 C 752.664062 238.015625 752.1875 227.011719 749.859375 217.921875 C 747.453125 208.535156 743.25 201.152344 737.347656 195.972656 C 731.246094 190.625 723.699219 187.910156 714.925781 187.910156 C 704.582031 187.910156 695.078125 190.648438 686.671875 196.046875 C 680.929688 199.734375 675.613281 203.851562 670.792969 208.34375 C 670.390625 208.71875 670.058594 208.671875 669.769531 208.210938 C 668.699219 206.507812 667.253906 204.902344 665.445312 203.398438 C 661.363281 200.027344 656.457031 197.773438 650.851562 196.691406 C 645.226562 195.625 639.507812 196.011719 633.9375 197.839844 C 627.972656 199.796875 623.527344 203.847656 620.71875 209.875 C 615.328125 221.488281 609.632812 235.042969 603.792969 250.164062 C 597.96875 265.261719 592.292969 281.039062 586.910156 297.070312 C 586.316406 298.847656 585.71875 300.625 585.128906 302.402344 C 580.585938 316.074219 572.050781 328.070312 560.625 336.84375 C 557.613281 339.15625 554.496094 341.367188 551.292969 343.460938 C 549.316406 344.761719 547.320312 345.960938 545.320312 347.0625 C 544.6875 347.410156 544.027344 346.648438 544.464844 346.074219 C 547.917969 341.527344 551.3125 336.617188 554.625 331.363281 C 561.449219 320.5625 567.671875 307.617188 573.121094 292.886719 C 578.871094 277.296875 582.480469 263.078125 583.84375 250.625 C 585.222656 238.011719 584.746094 227.007812 582.417969 217.921875 C 580.015625 208.539062 575.808594 201.15625 569.910156 195.972656 C 563.800781 190.621094 556.257812 187.910156 547.492188 187.910156 C 537.140625 187.910156 527.632812 190.648438 519.230469 196.042969 C 513.488281 199.734375 508.167969 203.851562 503.347656 208.34375 C 502.949219 208.714844 502.621094 208.671875 502.332031 208.207031 C 501.257812 206.503906 499.8125 204.898438 498 203.398438 C 493.925781 200.027344 489.015625 197.773438 483.40625 196.691406 C 477.777344 195.621094 472.058594 196.011719 466.496094 197.839844 C 460.542969 199.792969 456.089844 203.84375 453.269531 209.875 C 447.878906 221.507812 442.183594 235.0625 436.355469 250.164062 C 430.882812 264.351562 425.5625 279.074219 420.515625 293.980469 C 416.707031 305.226562 411.003906 314.261719 402.492188 322.539062 C 400.292969 324.679688 398.152344 326.613281 396.082031 328.324219 C 392.351562 331.421875 389.9375 332.070312 388.570312 332.070312 C 387.613281 332.070312 385.832031 332.070312 385.433594 327.363281 C 385.011719 322.445312 385.742188 316.035156 387.601562 308.3125 C 389.5 300.394531 392.253906 291.59375 395.789062 282.167969 C 399.347656 272.671875 402.960938 263.511719 406.523438 254.9375 C 410.121094 246.296875 413.355469 238.761719 416.136719 232.546875 C 418.988281 226.195312 420.691406 222.25 421.34375 220.492188 C 423.59375 215.363281 422.777344 210.304688 418.988281 205.863281 C 415.503906 201.78125 410.773438 198.925781 404.917969 197.367188 C 399.203125 195.855469 393.160156 195.769531 386.992188 197.121094 C 380.394531 198.570312 375.113281 202.480469 371.308594 208.722656 C 370.546875 209.957031 369.753906 211.320312 368.914062 212.835938 C 368.613281 213.375 367.804688 213.253906 367.675781 212.648438 C 366.953125 209.242188 365.785156 206.019531 364.1875 203.023438 C 361.792969 198.558594 358.25 194.898438 353.65625 192.136719 C 348.988281 189.332031 343.066406 187.910156 336.050781 187.910156 C 319.507812 187.910156 302.734375 195.542969 286.191406 210.601562 C 269.953125 225.386719 256.492188 248.972656 246.171875 280.722656 C 241.332031 296.03125 238.492188 310.183594 237.726562 322.785156 C 236.960938 335.539062 237.992188 346.546875 240.785156 355.492188 C 243.660156 364.722656 248.253906 372.003906 254.445312 377.140625 C 260.828125 382.449219 268.5 385.140625 277.242188 385.140625 C 283.710938 385.140625 289.882812 384.023438 295.585938 381.820312 C 301.113281 379.683594 306.238281 376.941406 310.820312 373.664062 C 314.34375 371.144531 317.625 368.292969 320.601562 365.160156 C 322.726562 362.925781 326.472656 363.828125 327.347656 366.78125 C 328.328125 370.09375 329.691406 373.039062 331.441406 375.605469 C 335.761719 381.929688 342.597656 385.140625 351.761719 385.140625 C 361.917969 385.140625 372.175781 381.332031 382.253906 373.824219 C 386.953125 370.328125 391.542969 366.515625 395.988281 362.414062 C 396.988281 361.492188 398.566406 362.480469 398.171875 363.78125 C 395.574219 372.417969 393.246094 380.417969 391.144531 387.925781 C 387.605469 400.542969 384.726562 411.414062 382.585938 420.234375 C 379.722656 432.0625 379.351562 435.277344 379.351562 436.761719 C 379.351562 444.011719 381.605469 450.195312 386.050781 455.140625 C 390.347656 459.894531 395.324219 463.308594 400.859375 465.28125 C 404.503906 466.574219 408.058594 467.230469 411.421875 467.230469 C 413.285156 467.230469 415.121094 467.027344 416.882812 466.628906 C 420.851562 465.730469 425.886719 463.085938 427.351562 455.582031 L 427.378906 455.4375 C 427.960938 451.488281 429.074219 446.136719 430.6875 439.527344 C 432.359375 432.667969 434.394531 424.863281 436.734375 416.324219 C 439.042969 407.832031 441.683594 398.371094 444.796875 387.402344 C 446.238281 382.335938 447.78125 377.023438 449.425781 371.503906 C 449.761719 370.382812 451.277344 370.203125 451.863281 371.21875 C 452.589844 372.480469 453.40625 373.710938 454.300781 374.910156 C 459.351562 381.679688 467.410156 385.121094 478.253906 385.140625 C 480.433594 385.238281 482.621094 385.289062 484.757812 385.289062 L 484.761719 385.289062 C 500.707031 385.289062 515.683594 382.550781 529.273438 377.152344 C 542.257812 372.003906 554.15625 365.707031 564.753906 358.421875 C 565.792969 357.707031 567.152344 358.703125 566.785156 359.910156 C 563.746094 369.933594 561 379.3125 558.585938 387.925781 C 555.027344 400.636719 552.148438 411.503906 550.023438 420.234375 C 547.164062 432.082031 546.792969 435.292969 546.792969 436.761719 C 546.792969 444.011719 549.046875 450.191406 553.496094 455.140625 C 557.789062 459.898438 562.769531 463.308594 568.304688 465.28125 C 571.949219 466.574219 575.496094 467.230469 578.863281 467.230469 C 580.722656 467.230469 582.5625 467.027344 584.332031 466.628906 C 588.296875 465.730469 593.332031 463.085938 594.796875 455.582031 L 594.824219 455.4375 C 595.40625 451.472656 596.519531 446.121094 598.132812 439.523438 C 599.804688 432.671875 601.832031 424.867188 604.171875 416.324219 C 606.496094 407.796875 609.136719 398.335938 612.242188 387.402344 C 613.683594 382.324219 615.230469 377.011719 616.867188 371.5 C 617.203125 370.378906 618.71875 370.199219 619.304688 371.210938 C 620.035156 372.476562 620.847656 373.710938 621.746094 374.910156 C 626.792969 381.679688 634.851562 385.121094 645.703125 385.140625 C 647.878906 385.238281 650.0625 385.289062 652.203125 385.289062 C 668.148438 385.289062 683.125 382.550781 696.71875 377.152344 C 711.933594 371.121094 725.679688 363.527344 737.585938 354.578125 C 739.613281 353.054688 741.582031 351.515625 743.503906 349.957031 C 744.382812 349.246094 745.699219 349.886719 745.675781 351.019531 C 745.671875 351.527344 745.667969 352.035156 745.667969 352.535156 C 745.667969 362.054688 747.667969 369.816406 751.617188 375.605469 C 755.9375 381.929688 762.777344 385.140625 771.941406 385.140625 C 782.074219 385.140625 792.402344 381.339844 802.628906 373.84375 C 812.351562 366.722656 821.535156 358.300781 829.917969 348.8125 C 838.191406 339.460938 845.457031 330.144531 851.527344 321.117188 C 857.660156 311.980469 861.789062 305.730469 864.148438 302.011719 C 866.03125 299.046875 866.082031 295.75 864.300781 292.972656 "
       style="stroke:none;fill-rule:nonzero;fill:#f9f9f9;fill-opacity:1" />
    <path
       id="path8"
       d="M 864.515625 587.515625 C 819.78125 626.675781 780.105469 629.132812 732.457031 594.054688 C 710.546875 577.945312 690.921875 558.746094 668.957031 542.722656 C 651.957031 530.328125 633.992188 518.015625 614.59375 510.359375 C 581.03125 497.074219 546.980469 501.589844 516.328125 520.214844 C 495.503906 532.867188 476.539062 548.636719 457.230469 563.660156 C 454.511719 565.746094 452.488281 566.890625 450.429688 566.804688 C 448.371094 566.890625 446.34375 565.746094 443.628906 563.660156 C 424.320312 548.636719 405.351562 532.867188 384.527344 520.214844 C 353.90625 501.589844 319.828125 497.074219 286.261719 510.359375 C 266.867188 518.015625 248.898438 530.328125 231.902344 542.722656 C 209.933594 558.746094 190.3125 577.945312 168.402344 594.054688 C 120.753906 629.132812 81.078125 626.675781 36.34375 587.515625 C 32.65625 584.285156 28.972656 581.058594 25.289062 577.859375 C 31.945312 614.707031 46.3125 647.757812 67.507812 677.753906 C 94.558594 716.03125 130.039062 743.453125 174.570312 758.507812 C 278.664062 793.699219 410.152344 744.652344 450.429688 652.074219 C 490.707031 744.652344 622.195312 793.699219 726.289062 758.507812 C 770.820312 743.453125 806.296875 716.03125 833.351562 677.753906 C 854.546875 647.757812 868.914062 614.707031 875.570312 577.859375 C 871.886719 581.058594 868.203125 584.285156 864.515625 587.515625 "
       style="stroke:none;fill-rule:nonzero;fill:#f9f9f9;fill-opacity:1" />
  </g>
</svg>
